<svg width="800" height="800" viewbox = "0 0 800 800"  xmlns="http://www.w3.org/2000/svg">
<!--<json>{
  "glyph": "0332,0332,01101,01103,01101,01102,",
  "shapes": [
    "0220:0305,0311,0350,0362,0203,0335,0203,0335,0335,0335,0335,0203,0335,0203,0354,0335,0335,0335,0335,",
    "0221:0311,0305,0350,0362,0203,0335,0335,0203,0335,0335,0335,0203,0335,0335,0203,0354,0335,0335,0335,",
    "0222:0306,0312,0350,0362,0203,0334,0334,0334,0334,0336,0334,0203,0334,0334,0203,0354,0334,0334,0334,0334,0334,0337,0313,0304,",
    "0223:0362,0203,0334,0312,0336,0203,0334,0306,0350,0334,0313,0337,0203,0354,0334,0334,0334,0334,0334,0313,0336,0312,0337,0304,0313,",
    "0224:0305,0350,0311,0362,0203,0334,0334,0334,0334,0203,0334,0334,0334,0336,0203,0354,0334,0334,0334,0337,0313,0304,",
    "0225:0305,0350,0311,0362,0203,0334,0334,0334,0334,0336,0203,0334,0334,0203,0354,0334,0334,0334,0334,0337,0313,0304,",
    "0226:0311,0305,0350,0336,0336,0362,0203,0334,0203,0334,0334,0334,0334,0203,0334,0203,0354,0334,0334,0334,0334,0337,0337,0313,0304,",
    "0227:0311,0305,0350,0336,0336,0362,0203,0334,0334,0203,0334,0334,0334,0203,0334,0334,0203,0354,0334,0334,0334,0337,0337,0313,0304,",
    "0230:0336,0336,0201,0334,0201,0335,0201,0335,0201,0201,0335,0201,0335,0201,0335,0330,0334,0330,0335,0201,0335,0201,0201,0335,0201,0335,0335,0330,0332,0201,0337,0337,",
    "0231:0336,0336,0336,0336,0347,0337,0337,0337,0337,",
    "0232:0336,0201,0336,0336,0330,0341,0331,0337,0337,0331,0337,",
    "0233:0342,0336,0330,0336,0336,0331,0334,0306,0362,0203,0335,0335,0203,0203,0335,0335,0203,0203,0335,0335,0203,0363,0330,0335,0335,0330,0330,0335,0331,0337,0342,0336,0330,0334,0337,0331,0336,0333,0335,0304,0334,0331,0331,0331,0337,0337,0337,0330,",
    "0234:0201,0336,0331,0350,0335,0336,0331,0337,0342,0336,0330,0334,0334,0331,0337,0342,0336,0330,0335,0337,0331,0304,0337,0330,",
    "0235:0331,0221,0333,0335,0335,0221,0335,0335,0330,",
    "0236:0201,0336,0336,0334,0306,0362,0336,0203,0335,0335,0203,0203,0335,0335,0203,0203,0335,0335,0203,0363,0304,0335,0337,0337,0337,0331,",
    "0237:0330,0335,0336,0336,0366,0337,0337,0333,0334,0334,0336,0336,0331,0367,0366,0335,0332,0337,0337,0331,0336,0336,0335,0367,0334,0337,0337,0330,",
    "0240:0223,0220,0221,0222,",
    "0241:",
    "0242:",
    "0243:",
    "0244:",
    "0245:0336,0366,0330,0333,0333,0336,0331,0337,0367,0335,0335,0366,0331,0333,0333,0367,0335,0335,0337,",
    "0246:",
    "0247:",
    "01220:0333,0200,0336,0330,0332,0336,0331,0220,0313,0304,0331,0333,0333,0337,0337,",
    "01221:0333,0200,0336,0330,0332,0336,0221,0313,0304,0331,0331,0333,0333,0337,0337,",
    "01222:0333,0200,0322,0222,0320,",
    "01223:0333,0200,0322,0223,0320,",
    "01224:0333,0200,0322,0224,0320,",
    "01225:0333,0200,0322,0225,0320,",
    "01226:0333,0200,0322,0226,0320,",
    "01227:0333,0200,0322,0227,0320,",
    "01230:0333,0200,0336,0332,0337,0230,0336,0333,0337,0331,",
    "01231:0333,0200,0336,0332,0337,0342,0336,0330,0335,0342,0335,0342,0335,0342,0335,0337,0231,0336,0333,0331,0337,",
    "01232:0333,0200,0336,0330,0332,0336,0331,0337,0232,0333,0336,0331,0337,0337,",
    "01233:0333,0200,0336,0330,0332,0336,0331,0337,0233,0331,0336,0333,0333,0331,0337,0337,",
    "01234:0333,0200,0336,0330,0332,0336,0331,0333,0332,0337,0234,0333,0331,0336,0331,0337,0337,",
    "01235:0333,0200,0336,0330,0332,0336,0332,0330,0337,0235,0331,0336,0333,0331,0337,0337,",
    "01236:0333,0200,0336,0330,0332,0336,0331,0337,0236,0336,0333,0331,0333,0337,0337,",
    "01237:0333,0200,0336,0330,0332,0336,0237,",
    "01240:0333,0200,0336,0330,0332,0336,0331,0240,0331,0331,0331,0331,0333,0333,0337,0337,",
    "01241:0241,0333,0333,",
    "01242:0242,0333,0333,",
    "01243:0333,0200,0332,0336,0330,0337,0243,0336,0331,0337,",
    "01244:0333,0200,0332,0336,0330,0337,0244,0336,0331,0337,",
    "01245:0333,0200,0336,0330,0332,0336,0331,0332,0337,0245,0331,0336,0333,0333,0333,0336,0331,0337,0337,0337,",
    "01246:0333,0200,0330,0332,0336,0331,0336,0332,0337,0246,0333,0333,0336,0333,0331,0331,0337,0337,",
    "01247:0333,0200,0336,0330,0332,0337,0247,0336,0333,0331,0337,"
  ],
  "x0rel": 0.5,
  "y0rel": 0.5,
  "unitrel": 0.2,
  "theta0": -1.570796,
  "width": 800,
  "height": 800,
  "scale": 1,
  "backgroundimage": "",
  "style": {
    "color0": "black",
    "fill0": "black",
    "line0": 2,
    "color1": "black",
    "fill1": "black",
    "line1": 3,
    "color2": "red",
    "fill2": "red",
    "line2": 4,
    "color3": "#FF7900",
    "fill3": "#FF7900",
    "line3": 2,
    "color4": "#d4af37",
    "fill4": "yellow",
    "line4": 2,
    "color5": "green",
    "fill5": "green",
    "line5": 4,
    "color6": "blue",
    "fill6": "blue",
    "line6": 4,
    "color7": "purple",
    "fill7": "purple",
    "line7": 2
  },
  "controlbuttons": [
    196,
    128,
    216,
    217,
    218,
    219,
    220,
    221,
    222,
    223,
    8,
    225,
    192,
    16,
    17,
    144,
    145,
    146,
    147,
    148,
    149,
    150,
    151,
    152,
    153,
    154,
    155,
    156,
    157,
    158,
    159,
    129
  ]
}</json>-->	<path d = "M98 400 L98 382 L98 364 L98 347 L98 329 L98 311 L98 293 L98 276 L116 258 L133 240 L142 240 L142 258 L133 258 L116 276 L116 293 L116 311 L133 311 L142 311 L142 329 L124 329 L116 329 L116 347 L116 364 L116 382 L116 400 L98 400 Z" stroke = "#000000" stroke-width = "2" fill = "none" />	<path d = "M204 400 L187 400 L187 382 L187 364 L187 347 L187 329 L169 329 L160 329 L160 311 L178 311 L187 311 L187 293 L187 276 L169 258 L160 258 L160 240 L169 240 L204 276 L204 293 L204 311 L204 329 L204 347 L204 364 L204 382 L204 400 Z" stroke = "#000000" stroke-width = "2" fill = "none" />	<path d = "M258 400 L240 382 L240 364 L240 347 L240 329 L240 311 L240 293 L240 276 L240 258 L258 240 L276 240 L284 240 L284 258 L276 258 L258 258 L258 276 L258 293 L258 311 L258 329 L258 347 L258 364 L258 382 L276 382 L284 382 L284 400 L276 400 L267 400 L258 400 Z" stroke = "#000000" stroke-width = "2" fill = "none" />	<path d = "M302 400 L302 391 L302 382 L311 382 L320 382 L329 382 L329 373 L338 373 L347 373 L347 382 L329 400 L311 400 L302 400 Z" stroke = "#000000" stroke-width = "2" fill = "none" />	<path d = "M302 258 L302 240 L320 240 L329 240 L347 258 L347 267 L329 267 L329 258 L311 258 L302 258 Z" stroke = "#000000" stroke-width = "2" fill = "none" />	<path d = "M382 400 L382 382 L382 364 L382 347 L382 329 L382 311 L382 293 L382 276 L400 258 L418 240 L427 240 L427 258 L418 258 L400 276 L400 293 L400 311 L418 311 L427 311 L427 329 L409 329 L400 329 L400 347 L400 364 L400 382 L400 400 L382 400 Z" stroke = "#000000" stroke-width = "2" fill = "none" />	<path d = "M489 400 L471 400 L471 382 L471 364 L471 347 L471 329 L453 329 L444 329 L444 311 L462 311 L471 311 L471 293 L471 276 L453 258 L444 258 L444 240 L453 240 L489 276 L489 293 L489 311 L489 329 L489 347 L489 364 L489 382 L489 400 Z" stroke = "#000000" stroke-width = "2" fill = "none" />	<path d = "M560 400 L560 382 L542 382 L542 364 L542 347 L542 329 L560 329 L560 311 L542 311 L542 293 L542 276 L542 258 L560 258 L560 240 L542 240 L524 240 L524 258 L524 276 L524 293 L524 311 L524 329 L524 347 L524 364 L524 382 L524 400 L542 400 L560 400 Z" stroke = "#000000" stroke-width = "2" fill = "none" />	<path d = "M578 400 L578 382 L596 382 L613 364 L613 347 L613 338 L596 320 L613 302 L613 284 L613 276 L596 258 L578 258 L578 240 L596 240 L631 276 L631 293 L631 311 L622 320 L631 329 L631 347 L631 364 L596 400 L578 400 Z" stroke = "#000000" stroke-width = "2" fill = "none" /></svg>