<svg width="800" height="800" viewbox = "0 0 800 800"  xmlns="http://www.w3.org/2000/svg">
<!--<json>{
  "glyph": "0332,0332,01106,01124,01120,01063,",
  "shapes": [
    "0220:0305,0311,0350,0362,0203,0335,0203,0335,0335,0335,0335,0203,0335,0203,0354,0335,0335,0335,0335,",
    "0221:0311,0305,0350,0362,0203,0335,0335,0203,0335,0335,0335,0203,0335,0335,0203,0354,0335,0335,0335,",
    "0222:0306,0312,0350,0362,0203,0334,0334,0334,0334,0336,0334,0203,0334,0334,0203,0354,0334,0334,0334,0334,0334,0337,0313,0304,",
    "0223:0362,0203,0334,0312,0336,0203,0334,0306,0350,0334,0313,0337,0203,0354,0334,0334,0334,0334,0334,0313,0336,0312,0337,0304,0313,",
    "0224:0305,0350,0311,0362,0203,0334,0334,0334,0334,0203,0334,0334,0334,0336,0203,0354,0334,0334,0334,0337,0313,0304,",
    "0225:0305,0350,0311,0362,0203,0334,0334,0334,0334,0336,0203,0334,0334,0203,0354,0334,0334,0334,0334,0337,0313,0304,",
    "0226:0311,0305,0350,0336,0336,0362,0203,0334,0203,0334,0334,0334,0334,0203,0334,0203,0354,0334,0334,0334,0334,0337,0337,0313,0304,",
    "0227:0311,0305,0350,0336,0336,0362,0203,0334,0334,0203,0334,0334,0334,0203,0334,0334,0203,0354,0334,0334,0334,0337,0337,0313,0304,",
    "0230:0336,0336,0201,0334,0201,0335,0201,0335,0201,0201,0335,0201,0335,0201,0335,0330,0334,0330,0335,0201,0335,0201,0201,0335,0201,0335,0335,0330,0332,0201,0337,0337,",
    "0231:0336,0336,0336,0336,0347,0337,0337,0337,0337,",
    "0232:0336,0201,0336,0336,0330,0341,0331,0337,0337,0331,0337,",
    "0233:0342,0336,0330,0336,0336,0331,0334,0306,0362,0203,0335,0335,0203,0203,0335,0335,0203,0203,0335,0335,0203,0363,0330,0335,0335,0330,0330,0335,0331,0337,0342,0336,0330,0334,0337,0331,0336,0333,0335,0304,0334,0331,0331,0331,0337,0337,0337,0330,",
    "0234:0201,0336,0331,0350,0335,0336,0331,0337,0342,0336,0330,0334,0334,0331,0337,0342,0336,0330,0335,0337,0331,0304,0337,0330,",
    "0235:0331,0221,0333,0335,0335,0221,0335,0335,0330,",
    "0236:0201,0336,0336,0334,0306,0362,0336,0203,0335,0335,0203,0203,0335,0335,0203,0203,0335,0335,0203,0363,0304,0335,0337,0337,0337,0331,",
    "0237:0330,0335,0336,0336,0366,0337,0337,0333,0334,0334,0336,0336,0331,0367,0366,0335,0332,0337,0337,0331,0336,0336,0335,0367,0334,0337,0337,0330,",
    "0240:0223,0220,0221,0222,",
    "0241:",
    "0242:",
    "0243:",
    "0244:",
    "0245:0336,0366,0330,0333,0333,0336,0331,0337,0367,0335,0335,0366,0331,0333,0333,0367,0335,0335,0337,",
    "0246:",
    "0247:",
    "01220:0333,0200,0336,0330,0332,0336,0331,0220,0313,0304,0331,0333,0333,0337,0337,",
    "01221:0333,0200,0336,0330,0332,0336,0221,0313,0304,0331,0331,0333,0333,0337,0337,",
    "01222:0333,0200,0322,0222,0320,",
    "01223:0333,0200,0322,0223,0320,",
    "01224:0333,0200,0322,0224,0320,",
    "01225:0333,0200,0322,0225,0320,",
    "01226:0333,0200,0322,0226,0320,",
    "01227:0333,0200,0322,0227,0320,",
    "01230:0333,0200,0336,0332,0337,0230,0336,0333,0337,0331,",
    "01231:0333,0200,0336,0332,0337,0342,0336,0330,0335,0342,0335,0342,0335,0342,0335,0337,0231,0336,0333,0331,0337,",
    "01232:0333,0200,0336,0330,0332,0336,0331,0337,0232,0333,0336,0331,0337,0337,",
    "01233:0333,0200,0336,0330,0332,0336,0331,0337,0233,0331,0336,0333,0333,0331,0337,0337,",
    "01234:0333,0200,0336,0330,0332,0336,0331,0333,0332,0337,0234,0333,0331,0336,0331,0337,0337,",
    "01235:0333,0200,0336,0330,0332,0336,0332,0330,0337,0235,0331,0336,0333,0331,0337,0337,",
    "01236:0333,0200,0336,0330,0332,0336,0331,0337,0236,0336,0333,0331,0333,0337,0337,",
    "01237:0333,0200,0336,0330,0332,0336,0237,",
    "01240:0333,0200,0336,0330,0332,0336,0331,0240,0331,0331,0331,0331,0333,0333,0337,0337,",
    "01241:0241,0333,0333,",
    "01242:0242,0333,0333,",
    "01243:0333,0200,0332,0336,0330,0337,0243,0336,0331,0337,",
    "01244:0333,0200,0332,0336,0330,0337,0244,0336,0331,0337,",
    "01245:0333,0200,0336,0330,0332,0336,0331,0332,0337,0245,0331,0336,0333,0333,0333,0336,0331,0337,0337,0337,",
    "01246:0333,0200,0330,0332,0336,0331,0336,0332,0337,0246,0333,0333,0336,0333,0331,0331,0337,0337,",
    "01247:0333,0200,0336,0330,0332,0337,0247,0336,0333,0331,0337,"
  ],
  "x0rel": 0.5,
  "y0rel": 0.5,
  "unitrel": 0.2,
  "theta0": -1.570796,
  "width": 800,
  "height": 800,
  "scale": 1,
  "backgroundimage": "",
  "style": {
    "color0": "black",
    "fill0": "black",
    "line0": 2,
    "color1": "black",
    "fill1": "black",
    "line1": 3,
    "color2": "red",
    "fill2": "red",
    "line2": 4,
    "color3": "#FF7900",
    "fill3": "#FF7900",
    "line3": 2,
    "color4": "#d4af37",
    "fill4": "yellow",
    "line4": 2,
    "color5": "green",
    "fill5": "green",
    "line5": 4,
    "color6": "blue",
    "fill6": "blue",
    "line6": 4,
    "color7": "purple",
    "fill7": "purple",
    "line7": 2
  },
  "controlbuttons": [
    196,
    128,
    216,
    217,
    218,
    219,
    220,
    221,
    222,
    223,
    8,
    225,
    192,
    16,
    17,
    144,
    145,
    146,
    147,
    148,
    149,
    150,
    151,
    152,
    153,
    154,
    155,
    156,
    157,
    158,
    159,
    129
  ]
}</json>-->	<path d = "M98 400 L98 382 L98 364 L98 347 L98 329 L98 311 L98 293 L98 276 L98 258 L98 240 L116 240 L133 240 L142 240 L142 258 L124 258 L116 258 L116 276 L116 293 L116 311 L133 311 L142 311 L142 329 L124 329 L116 329 L116 347 L116 364 L116 382 L116 400 L98 400 Z" stroke = "#000000" stroke-width = "2" fill = "none" />	<path d = "M160 258 L160 240 L178 240 L196 240 L204 240 L204 258 L187 258 L169 258 L160 258 Z" stroke = "#000000" stroke-width = "2" fill = "none" />	<path d = "M293 400 L284 400 L284 382 L284 364 L284 347 L284 329 L284 311 L284 293 L284 276 L284 258 L267 258 L249 258 L240 258 L240 240 L258 240 L276 240 L293 240 L311 240 L329 240 L347 240 L347 258 L329 258 L311 258 L302 258 L302 276 L302 293 L302 311 L302 329 L302 347 L302 364 L302 382 L302 400 L293 400 Z" stroke = "#000000" stroke-width = "2" fill = "none" />	<path d = "M382 400 L382 382 L382 364 L382 347 L382 329 L382 311 L382 293 L382 276 L382 258 L382 240 L400 240 L400 258 L400 276 L400 293 L400 311 L400 329 L400 347 L400 364 L400 382 L400 400 L382 400 Z" stroke = "#000000" stroke-width = "2" fill = "none" />	<path d = "M418 329 L418 311 L436 311 L453 311 L471 293 L471 276 L453 258 L436 258 L418 258 L418 240 L436 240 L453 240 L471 240 L489 258 L489 276 L489 293 L489 311 L471 329 L453 329 L436 329 L418 329 Z" stroke = "#000000" stroke-width = "2" fill = "none" />	<path d = "M542 400 L524 382 L524 364 L542 364 L542 382 L560 382 L569 382 L569 400 L551 400 L542 400 Z" stroke = "#000000" stroke-width = "2" fill = "none" />	<path d = "M587 400 L587 382 L604 382 L613 382 L613 364 L613 347 L613 329 L596 329 L587 329 L587 311 L604 311 L613 311 L613 293 L613 276 L613 258 L596 258 L587 258 L587 240 L604 240 L622 240 L631 240 L631 258 L631 276 L631 293 L631 311 L631 329 L631 347 L631 364 L631 382 L631 400 L613 400 L596 400 L587 400 Z" stroke = "#000000" stroke-width = "2" fill = "none" />	<path d = "M569 258 L569 240 L551 240 L542 240 L524 258 L524 276 L542 276 L542 258 L560 258 L569 258 Z" stroke = "#000000" stroke-width = "2" fill = "none" /></svg>